<?xml version="1.0" encoding="UTF-8"?>
<svg id="Laag_1" data-name="Laag 1" xmlns="http://www.w3.org/2000/svg" viewBox="0 0 182.02 181.96">
  <defs>
    <style>
      .cls-1 {
        fill: none;
      }

      .cls-1, .cls-2 {
        stroke: #333;
        stroke-miterlimit: 10;
      }

      .cls-2 {
        fill: #f58c66;
      }
    </style>
  </defs>
  <g id="basketbal">
    <path class="cls-2" d="M137.02,165.13c-22.04,13.66-47.79,16.39-70.87,9.68-20.1-5.85-38.2-18.87-50.1-38.07C5.63,119.94,1.56,100.96,3.2,82.66,5.6,56.08,20.02,30.92,44.45,15.78,67.01,1.79,93.43-.72,116.93,6.59c19.46,6.07,36.9,18.91,48.48,37.59,13.3,21.45,16.23,46.39,10.19,68.98-5.56,20.86-18.8,39.7-38.58,51.97Z"/>
    <path class="cls-1" d="M44.45,15.79c31.52,62.84,62.98,124.54,92.57,149.35"/>
    <path class="cls-2" d="M175.6,113.17c-24.52,2.93-49.68-8.2-63.55-30.58-15.14-24.43-12.31-54.9,4.87-76,19.46,6.07,36.9,18.91,48.48,37.59,13.3,21.45,16.23,46.39,10.19,68.98Z"/>
    <path class="cls-2" d="M66.15,174.82c-20.1-5.85-38.2-18.87-50.1-38.07C5.63,119.94,1.56,100.96,3.2,82.66c22.97-1.05,45.79,10.05,58.76,30.98,11.87,19.15,12.69,42.04,4.18,61.18Z"/>
    <path class="cls-1" d="M165.41,44.18c-47.59,36.61-97.37,67.47-149.35,92.57"/>
  </g>
</svg>