<?xml version="1.0" encoding="UTF-8"?>
<svg id="Laag_1" data-name="Laag 1" xmlns="http://www.w3.org/2000/svg" viewBox="0 0 178.57 178.57">
  <defs>
    <style>
      .cls-1 {
        fill: #603813;
      }

      .cls-2 {
        fill: #fff;
        opacity: .3;
      }

      .cls-3 {
        fill: #c69c6d;
      }

      .cls-4 {
        fill: none;
        stroke: #666;
        stroke-miterlimit: 10;
        stroke-width: 2px;
      }
    </style>
  </defs>
  <rect class="cls-4" x="0" width="178.57" height="178.57" rx="10" ry="10"/>
  <g>
    <path class="cls-3" d="M153.18,91.4c0,.55-1.02,1.05-2.89,1.49-17.11,4.11-104.84,4.11-121.98,0-1.87-.45-2.9-.95-2.9-1.49,0-67.65,127.78-67.65,127.78,0Z"/>
    <path class="cls-3" d="M151.49,132.86c-41.48,6.73-82.95,6.73-124.43,0-1-.16-1.81-.93-1.99-1.92-1.08-5.97-.99-12.11-.05-18.37.19-1.28,1.34-2.18,2.63-2.06.26.02.53.05.79.07,39.05,3.64,79.72,3.37,121.69-.04.29-.02.58-.04.86-.07,1.27-.1,2.38.8,2.58,2.05.98,6.16.96,12.28-.09,18.39-.17,1.01-.99,1.79-2,1.96Z"/>
    <path class="cls-1" d="M150.13,110.53c-41.97,3.42-82.64,3.68-121.69.04-1.25-5.74-1.17-11.65-.13-17.68,17.14,4.11,104.87,4.11,121.98,0,1.08,5.9,1.03,11.79-.16,17.64Z"/>
    <path class="cls-2" d="M50.81,78.86c-5.31,3.77-6.64,6.48-5,8.4.63.74,1.61,1.16,2.58,1.07,2.51-.24,3.31-3.48,2.42-9.47Z"/>
    <path class="cls-2" d="M64.97,58.31c-6.34,1.49-8.6,3.5-7.8,5.89.31.92,1.06,1.69,1.99,1.96,2.41.72,4.38-1.97,5.81-7.86Z"/>
    <path class="cls-2" d="M77.3,47.43c-6.39-1.27-9.27-.37-9.54,2.14-.1.97.27,1.97,1,2.61,1.9,1.65,4.8.01,8.54-4.75Z"/>
    <path class="cls-2" d="M41.59,61.97c-1.14,6.41-.19,9.28,2.33,9.49.97.08,1.97-.3,2.59-1.05,1.62-1.93-.08-4.8-4.92-8.45Z"/>
    <path class="cls-2" d="M98.24,66.54c1.18,6.41,3.08,8.75,5.51,8.07.94-.26,1.73-.97,2.06-1.89.84-2.37-1.76-4.46-7.57-6.18Z"/>
    <path class="cls-2" d="M125.97,81.06c-6.26,1.81-8.41,3.93-7.49,6.28.35.91,1.14,1.63,2.08,1.86,2.44.6,4.27-2.19,5.41-8.14Z"/>
    <path class="cls-2" d="M141.58,67.73c-6.48-.68-9.27.47-9.31,2.99-.01.97.44,1.94,1.23,2.51,2.04,1.48,4.78-.42,8.08-5.5Z"/>
    <path class="cls-2" d="M121.84,56.97c-3.19,5.68-3.24,8.7-.93,9.73.89.4,1.96.36,2.79-.14,2.16-1.29,1.5-4.56-1.86-9.6Z"/>
    <path class="cls-2" d="M91.23,79.91c-2.68,5.94-2.47,8.95-.08,9.78.92.32,1.98.19,2.77-.38,2.04-1.47,1.1-4.67-2.69-9.4Z"/>
    <path class="cls-2" d="M86.59,55.26c-4.72,4.49-5.66,7.36-3.76,9.02.73.64,1.76.92,2.71.69,2.45-.59,2.78-3.91,1.05-9.72Z"/>
    <path class="cls-2" d="M67.75,76.26c2.25,6.11,4.52,8.11,6.8,7.02.88-.42,1.54-1.25,1.71-2.21.42-2.48-2.49-4.1-8.51-4.81Z"/>
    <path class="cls-2" d="M100.09,48.41c2.25,6.11,4.52,8.11,6.8,7.02.88-.42,1.54-1.25,1.71-2.21.42-2.48-2.49-4.1-8.51-4.81Z"/>
  </g>
</svg>