<?xml version="1.0" encoding="UTF-8"?>
<svg id="Laag_1" data-name="Laag 1" xmlns="http://www.w3.org/2000/svg" viewBox="0 0 178.57 178.57">
  <defs>
    <style>
      .cls-1, .cls-2 {
        stroke: #333;
      }

      .cls-1, .cls-2, .cls-3 {
        stroke-miterlimit: 10;
      }

      .cls-1, .cls-3 {
        fill: none;
      }

      .cls-2 {
        fill: #f58c66;
      }

      .cls-3 {
        stroke: #666;
        stroke-width: 2px;
      }
    </style>
  </defs>
  <rect class="cls-3" width="178.57" height="178.57" rx="10" ry="10"/>
  <path class="cls-2" d="M119.47,137.98c-14.37,8.91-31.16,10.69-46.22,6.32-13.11-3.82-24.91-12.3-32.67-24.82-6.8-10.96-9.45-23.34-8.38-35.28,1.56-17.33,10.97-33.74,26.9-43.61,14.71-9.12,31.94-10.76,47.27-5.99,12.69,3.96,24.07,12.33,31.62,24.51,8.67,13.99,10.59,30.25,6.65,44.99-3.63,13.6-12.26,25.89-25.16,33.89Z"/>
  <path class="cls-1" d="M59.1,40.59c20.56,40.98,41.07,81.22,60.37,97.4"/>
  <path class="cls-2" d="M144.63,104.09c-15.99,1.91-32.4-5.34-41.44-19.94-9.87-15.93-8.03-35.8,3.18-49.56,12.69,3.96,24.07,12.33,31.62,24.51,8.67,13.99,10.59,30.25,6.65,44.99Z"/>
  <path class="cls-2" d="M73.26,144.3c-13.11-3.82-24.91-12.3-32.67-24.82-6.8-10.96-9.45-23.34-8.38-35.28,14.98-.68,29.86,6.55,38.32,20.2,7.74,12.49,8.27,27.41,2.73,39.9Z"/>
  <path class="cls-1" d="M137.98,59.1c-31.03,23.88-63.5,44-97.4,60.37"/>
</svg>